<svg xmlns="http://www.w3.org/2000/svg" xmlns:xlink="http://www.w3.org/1999/xlink" viewBox="0 0 2482.42 1024"><defs><style>.cls-1{fill:url(#Degradado_sin_nombre_42);}.cls-2{fill:url(#Degradado_sin_nombre_42-2);}.cls-3{fill:url(#Degradado_sin_nombre_42-3);}.cls-4{fill:url(#Degradado_sin_nombre_42-4);}.cls-5{fill:#000621;}</style><linearGradient id="Degradado_sin_nombre_42" x1="205.74" y1="516.95" x2="2257.83" y2="516.95" gradientUnits="userSpaceOnUse"><stop offset="0" stop-color="#84d8c4"/><stop offset="1" stop-color="#e5ffc8"/></linearGradient><linearGradient id="Degradado_sin_nombre_42-2" x1="213.43" y1="501.76" x2="2236.57" y2="501.76" xlink:href="#Degradado_sin_nombre_42"/><linearGradient id="Degradado_sin_nombre_42-3" x1="218.66" y1="492.48" x2="2211.12" y2="492.48" xlink:href="#Degradado_sin_nombre_42"/><linearGradient id="Degradado_sin_nombre_42-4" x1="218.9" y1="485.88" x2="2188.02" y2="485.88" xlink:href="#Degradado_sin_nombre_42"/></defs><g id="aurora_saas_logo_light"><path class="cls-1" d="M2101,185.14a267.85,267.85,0,0,1,43.22,9.69,240.27,240.27,0,0,1,41.38,16.88,158.71,158.71,0,0,1,37.19,26.17,116.91,116.91,0,0,1,15.21,17.7,93.44,93.44,0,0,1,11.11,21c5.75,15,7.3,31.44,5.58,47.18-.43,3.94-1.05,7.85-1.84,11.7s-1.75,7.78-2.79,11.25q-3.09,10.74-6.53,21.38A611.58,611.58,0,0,1,2209.8,451a601.1,601.1,0,0,1-45.6,77.1,643.89,643.89,0,0,1-56.44,69.52,740.66,740.66,0,0,1-137,114.33C1921,744.5,1868,771.78,1813.43,795q-41,17.21-83.12,31.44a419,419,0,0,1-87.81,20.13,338.42,338.42,0,0,1-90.41-1.73,349,349,0,0,1-86.56-25.61c-27.55-12.08-53.55-27.2-78.1-44.08a789.49,789.49,0,0,1-70.14-54.87c-44.66-38.89-86.09-80.81-127.92-121.94s-84.24-81.58-130.63-117A621.45,621.45,0,0,0,986,433.15,440.56,440.56,0,0,0,906.4,398c-55.24-18.07-114.73-22.42-172.48-15.1S620,409.89,568.68,437.77s-98.47,63.62-141.29,103.61-81.67,84.33-117,131.21q-26.49,35.17-50.32,72.27c-15.83,24.73-31,49.94-44.48,76,13.22-26.24,28.08-51.63,43.65-76.56s32.15-49.23,49.58-72.91c34.87-47.33,73.26-92.23,115.93-132.84s89.6-77,141.29-105.61,108.15-49.14,166.94-57a424.4,424.4,0,0,1,88.71-2.69,395.72,395.72,0,0,1,87.44,16,450.39,450.39,0,0,1,82.05,34.44,621.78,621.78,0,0,1,74.8,48c47.61,35.28,91,75.57,133.5,116.18S1283.6,670,1328,707.77a773.48,773.48,0,0,0,69.16,53c24,16.15,49.2,30.43,75.6,41.69A337,337,0,0,0,1555,826.12a319.44,319.44,0,0,0,85.32,1.1,399.42,399.42,0,0,0,83.54-19.71c27.47-9.66,54.62-20.38,81.35-31.9,53.46-23,105.24-50,153.66-81.93,12.13-8,24-16.31,35.64-24.9s23.15-17.42,34.3-26.65a692.9,692.9,0,0,0,63.35-59.21,621.5,621.5,0,0,0,54.86-67,587.89,587.89,0,0,0,78.61-153.8q3.47-10.28,6.61-20.68c1-3.56,2-6.7,2.89-10s1.54-6.63,2.07-10a84.75,84.75,0,0,0-2.68-39.73,95.39,95.39,0,0,0-20.78-35,133.49,133.49,0,0,0-15.4-14.43,187.67,187.67,0,0,0-17.38-12.54,272.32,272.32,0,0,0-38.51-20.06A324.68,324.68,0,0,0,2101,185.14Z"/><path class="cls-2" d="M223.31,783c24.91-50.86,54.9-99.2,87.95-145.31A971.56,971.56,0,0,1,422.09,508.38c40.9-39.59,86.09-75.19,135.83-103.72s104.24-49.36,161.17-59a440.81,440.81,0,0,1,172.11,5.07,477.53,477.53,0,0,1,82.22,26.95,585.36,585.36,0,0,1,76.47,40c49,30.11,93.56,66.31,136.32,103.75S1270,598,1312.34,635.07s86,72.46,134.25,99.69c24.09,13.59,49.31,25,75.5,33.13a306.27,306.27,0,0,0,80.66,13.78,323.18,323.18,0,0,0,41-1.19,353.85,353.85,0,0,0,40.71-6.33,410.52,410.52,0,0,0,39.93-10.85c13.31-4.4,26.64-8.95,39.84-13.73,52.86-19.07,104.57-41.3,154-67.68s96.48-57.39,138.56-94.23a552.6,552.6,0,0,0,58.92-59.5,491.51,491.51,0,0,0,48.46-68.3,522.29,522.29,0,0,0,36.45-75.64c5.11-13.08,9.7-26.38,14-39.79l1.6-5,1.47-5,1.28-5,1.08-5a106.3,106.3,0,0,0,2-20.41,81.42,81.42,0,0,0-9.67-39.38c-6.51-12.11-16.13-22.49-27.19-31a163.21,163.21,0,0,0-36.5-20.72,208.23,208.23,0,0,0-40.46-12.32,209.65,209.65,0,0,1,41.13,10.61,162.94,162.94,0,0,1,38,19.5c11.67,8.3,22.14,18.74,29.52,31.35a87.55,87.55,0,0,1,11.87,41.8c.58,14.63-2.35,29.28-6.53,42.9-4,13.64-8.26,27.23-13.08,40.65a514.18,514.18,0,0,1-35.15,78.09A503.31,503.31,0,0,1,2126,536.58a566.07,566.07,0,0,1-59.1,62.32c-42.54,38.43-90.18,70.8-140.1,98.52S1824.4,748.12,1771,768c-13.36,5-26.77,9.7-40.29,14.3a431.65,431.65,0,0,1-41.84,11.78,345.58,345.58,0,0,1-86.83,8.67,327.12,327.12,0,0,1-86.24-14.47c-27.92-8.55-54.57-20.56-79.8-34.69A630.83,630.83,0,0,1,1364,706c-22.88-17.28-44.8-35.61-66.14-54.43-42.72-37.62-83.58-76.78-125.82-114S1086.2,464.9,1039,435.16s-98.18-53.11-152.15-65.85-110.23-15.51-165.09-7a444,444,0,0,0-80.71,20.41A527.36,527.36,0,0,0,564.82,417c-49.11,26.79-94.18,60.94-135.47,99.06S350.45,596.52,316,641.25q-25.82,33.57-49.07,69C251.45,733.92,236.59,758,223.31,783Z"/><path class="cls-3" d="M228.54,753.35c24.15-49.35,53.13-96.31,85-141.18A981.29,981.29,0,0,1,420,485.86c39.17-38.92,82.4-74.11,129.86-103a535.16,535.16,0,0,1,74.3-37.88,474,474,0,0,1,79.84-25A440.47,440.47,0,0,1,871,316a490.7,490.7,0,0,1,81.26,20.88,579.34,579.34,0,0,1,76.76,33.46,763.11,763.11,0,0,1,71.64,42.79c23,15.52,45.29,32.07,67,49.16,43.48,34.2,84.8,70.66,126.29,106.48,20.74,17.92,41.57,35.65,62.71,52.87s42.64,33.86,64.88,49.29a570.07,570.07,0,0,0,69.21,41.63c24,12,48.93,21.79,74.7,28.15a288.17,288.17,0,0,0,78.72,8.41,304.5,304.5,0,0,0,78.34-13.26l9.57-3,9.71-3.25c6.48-2.14,12.91-4.42,19.35-6.64q19.32-6.76,38.43-14c25.46-9.76,50.66-20.16,75.4-31.52,49.49-22.58,97.43-48.83,141.09-81a517.36,517.36,0,0,0,61.43-52.92,400.15,400.15,0,0,0,50.76-63,427,427,0,0,0,37.19-72.14c5.11-12.61,9.75-25.43,14.08-38.39q3.27-9.71,6.37-19.51l3.11-9.81c1-3.25,2-6.44,2.86-9.7,3.44-13,5.66-26.35,5-39.67s-4.1-26.53-11.4-37.72-17.85-20.19-29.82-26.55a114.6,114.6,0,0,0-38.9-12.22,115.73,115.73,0,0,1,39.85,10.32c12.53,5.84,24.15,14.5,32.28,26.14s12.7,25.58,13.85,39.63-.47,28.27-3.6,41.89c-.77,3.41-1.7,6.81-2.62,10.15l-2.83,9.91q-2.84,9.91-5.82,19.81c-4,13.2-8.32,26.35-13.15,39.34a417.61,417.61,0,0,1-36.27,75c-29.23,47.58-68.78,88.37-113,122s-92.77,61.32-142.72,85.12c-25,11.93-50.5,22.66-76.2,32.83q-19.29,7.57-38.78,14.62c-6.5,2.32-13,4.69-19.52,6.92l-9.78,3.39c-3.29,1.12-6.68,2.21-10,3.29A325.23,325.23,0,0,1,1645,769.94a301.22,301.22,0,0,1-84.57-8.62c-27.58-6.72-54.08-17-79.22-29.55a590.6,590.6,0,0,1-72-43c-45.86-31.63-88-67.51-129.51-103.56s-82.47-72.4-125.22-106.24c-21.37-16.9-43.17-33.2-65.63-48.43a737.83,737.83,0,0,0-69.32-42.26,560.23,560.23,0,0,0-73.81-33,472.24,472.24,0,0,0-77.9-20.76,446.31,446.31,0,0,0-80.26-6.81,424.52,424.52,0,0,0-80.16,8.4C654.56,346.76,603.86,367.49,557,394.7s-90.08,61.12-129.75,98.55-75.81,78.82-109,122.35q-24.88,32.67-47.38,67.15C255.8,705.7,241.42,729.1,228.54,753.35Z"/><path class="cls-4" d="M228.71,725.53c24.11-47.51,52.76-92.7,84.1-135.9a1001.2,1001.2,0,0,1,104-121.85c38-37.74,79.67-72,125.12-100.87a583.3,583.3,0,0,1,71-38.54,508.77,508.77,0,0,1,76.26-27.43A457,457,0,0,1,850.57,286.8c54.16,4.93,107.14,19.72,156.78,41.2s96.3,49.31,140.2,80.24,85.62,64.64,126.6,98.78,81.35,68.75,123,101.32c20.85,16.22,42.07,31.87,64,46.26s44.56,27.53,68.12,38.36,48.07,19.27,73.24,23.91a237.27,237.27,0,0,0,76.13,1.93c6.32-.86,12.59-2.06,18.83-3.4s12.42-3,18.55-4.91,12.08-3.93,18.31-6.29,12.43-4.61,18.6-7c24.76-9.46,49.34-19.33,73.62-29.85,48.49-21.1,96.25-44.11,140.85-72.11a556.14,556.14,0,0,0,63.76-46.12,367.34,367.34,0,0,0,54.47-56.2,353.66,353.66,0,0,0,40.5-67.14c11.26-23.8,20.46-48.72,30-73.6l7.2-18.57c2.32-6.14,4.34-12.37,6.12-18.66,3.46-12.57,5.76-25.6,4.83-38.5a55.19,55.19,0,0,0-4.46-18.63,42.64,42.64,0,0,0-11.46-15.31,50.57,50.57,0,0,0-17.13-9.3,64.59,64.59,0,0,0-19.55-3.18,65.21,65.21,0,0,1,19.89,2,52.67,52.67,0,0,1,18.32,8.55,45.09,45.09,0,0,1,13.21,15.66,59.29,59.29,0,0,1,5.82,19.74c1.68,13.67-.07,27.39-3,40.6-1.48,6.61-3.36,13.12-5.45,19.54s-4.41,12.61-6.59,18.91c-8.76,25.09-17.21,50.49-28,75.2a361.43,361.43,0,0,1-40.1,70.39,380.28,380.28,0,0,1-55,59.68A557.25,557.25,0,0,1,1976.15,609c-22.55,14.73-45.88,28.13-69.62,40.65s-47.92,24.16-72.4,35-49.2,21.15-74.08,31c-6.21,2.48-12.46,4.84-18.69,7.26s-12.86,4.79-19.39,6.86-13.27,3.88-20,5.49-13.56,2.88-20.42,3.88a252.65,252.65,0,0,1-82.86-1.47c-27.26-4.94-53.48-13.93-78.32-25.25a543.65,543.65,0,0,1-71.07-39.71c-22.63-14.76-44.35-30.69-65.56-47.1-42.45-32.82-82.74-67.82-123.49-101.93s-81.8-67.64-124.9-98.08-88.11-58-136-79.19-98.6-35.84-150.55-41.05A441.28,441.28,0,0,0,693.36,316.7a493.32,493.32,0,0,0-74.28,25.49,578.34,578.34,0,0,0-70,36.21C504,405.66,462.38,438.76,423.8,475S350,551.14,317.31,593q-24.45,31.46-46.7,64.6C255.78,679.69,241.53,702.19,228.71,725.53Z"/><path class="cls-5" d="M293.59,616.13H191.21L362.7,140.38H473.31L644.38,616.13H547l-28.94-81.75H322.62ZM421.28,260.91l-1.57.09L353.8,446.61H487Z"/><path class="cls-5" d="M907.52,464.7V265h95.15V616.13H914.89V573.25q-27.48,50.93-103.19,50.92-61.65,0-94.81-37.85T683.72,484.13V265h95.15V473.41q0,69,58.29,69,34.85,0,52.6-20.1T907.52,464.7Z"/><path class="cls-5" d="M1288.12,262.34v89.12a96,96,0,0,0-18.76-2q-42.22,0-63.32,22.11t-21.11,69.69V616.13h-95.15V265h87.78v45.56q30.15-48.9,99.17-48.91Z"/><path class="cls-5" d="M1620.47,570.9q-50.92,53.28-133.34,53.27T1353.78,570.9q-50.92-53.26-50.92-130.32t50.92-130.33Q1404.71,257,1487.13,257t133.34,53.27q50.92,53.26,50.93,130.33T1620.47,570.9ZM1423.14,367.54q-25.14,26.81-25.13,73t25.13,73q25.13,26.8,64,26.81t64-26.81q25.13-26.79,25.13-73t-25.13-73q-25.12-26.79-64-26.81T1423.14,367.54Z"/><path class="cls-5" d="M1934.73,262.34v89.12a96,96,0,0,0-18.76-2q-42.21,0-63.32,22.11t-21.11,69.69V616.13h-95.15V265h87.78v45.56q30.16-48.9,99.17-48.91Z"/><path class="cls-5" d="M2084.16,624.17q-59,0-91.13-29.48t-32.16-78.4q0-46,33.2-73.41t102.67-38.07l94-14.49V387q0-51.59-63-51.6-59,0-65,42.89h-93.81q4.68-51.58,42.88-86.44T2127.05,257q76.38,0,115.25,34.17t38.86,96.49V553.15q0,39.54,10.05,63h-91.8q-.67,0-1.34-4.69T2196.4,597a192,192,0,0,1-1-19.77Q2162.56,624.17,2084.16,624.17ZM2190.7,458.75l-84.32,14q-53.72,9.3-53.71,41.19,0,36.52,52.93,36.53,40.88,0,63-21.27t22.11-56.49Z"/><path class="cls-5" d="M244.37,739.49c-21.2,0-35.81,11.93-35.81,28.24,0,16,15.5,23.51,30.25,27.66l16,4.6c19.27,5.41,41.22,15.49,41.22,40.7,0,24.32-19.72,42.93-52.64,42.93-31,0-50.57-16.54-52.2-40.56h14.24c1.48,18,17.49,27.88,38,27.88,22.68,0,39.22-12.23,39.22-30.47,0-15.5-12.9-22.54-31.74-28l-18.16-5.34c-23.8-7-37.59-19.27-37.59-38.77,0-24.47,21.58-41.3,49.6-41.3,28.25,0,48.19,17.05,49.23,40.11H280.55C278.85,750.24,264.46,739.49,244.37,739.49Z"/><path class="cls-5" d="M320.87,824.6c0-34.92,20.61-59,50.12-59s50.12,24.1,50.12,59c0,34.7-20.61,58.79-50.12,58.79S320.87,859.3,320.87,824.6Zm87,0c0-25.5-13.2-47-36.85-47s-36.85,21.5-36.85,47,13.2,46.71,36.85,46.71S407.84,850.1,407.84,824.6Z"/><path class="cls-5" d="M497,778.63H471.74l-.08,102-13.19.44V778.63H441V767.14h17.5v-16c0-18.39,14.53-28.25,30-28.25a35.65,35.65,0,0,1,14.09,2.52L498.72,737a25.41,25.41,0,0,0-9-1.63c-11.49,0-17.94,6.59-17.94,18.53v13.27H497Z"/><path class="cls-5" d="M568.19,778.63h-24.1v72.66c0,14.31,8.23,18.54,17.2,18.54a27,27,0,0,0,7.71-1l2.82,11.93a31.61,31.61,0,0,1-11.71,2c-14.61,0-29.29-9.72-29.29-28.32V778.63h-17V767.14h17V739.86h13.27v27.28h24.1Z"/><path class="cls-5" d="M589,767.14H603l27,93.94h1l26.92-93.94h14l26.69,93.72h1l27-93.72h13.94L706.08,881H692.44l-27-93.34H664l-27,93.34H623.41Z"/><path class="cls-5" d="M760.56,849.22c0-22.54,18-29.74,43.74-32.92,19.13-2.38,29.81-2.52,29.81-11.12v-2.67c0-15.57-9.57-25.06-26.84-25.06-16.46,0-26.77,8.37-30.92,18.16l-12.53-4.52c7.71-18.61,25.65-25.51,43.08-25.51s40.4,7.57,40.4,38.11V881H834.11V863h-.82C828.55,873.09,817,883.62,798,883.62,777.32,883.62,760.56,871.16,760.56,849.22Zm73.55-11.87V820.89c-3.86,3.78-20.47,5.86-29.81,7-19.27,2.38-30.54,8.16-30.54,21.95s11.12,21.72,26,21.72C820.84,871.53,834.11,856,834.11,837.35Z"/><path class="cls-5" d="M882.36,767.14h12.83v17.5h1c4.6-11.49,16.83-19.2,31.14-19.2,2.15,0,5.19.14,7,.22v13.42a55.81,55.81,0,0,0-7.93-.74c-17.8,0-30.77,12.23-30.77,29.13V881h-13.2Z"/><path class="cls-5" d="M947.38,824.75c0-34.48,20.39-59.17,49.89-59.17,24.69,0,48.2,17.87,48.2,55.91V828H960.65c.59,26.32,15.35,43.3,38.62,43.3,16.17,0,26.47-8.45,30.85-18.68l12.53,4.07c-5.19,14.31-20.54,26.69-43.38,26.69C967.4,883.39,947.38,859.3,947.38,824.75Zm84.59-8.38c0-21.94-14.31-38.77-34.7-38.77-20.83,0-35.14,17.57-36.55,38.77Z"/><path class="cls-5" d="M1127.52,849.22c0-22.54,18-29.74,43.75-32.92,19.13-2.38,29.8-2.52,29.8-11.12v-2.67c0-15.57-9.56-25.06-26.84-25.06-16.46,0-26.76,8.37-30.92,18.16l-12.52-4.52c7.71-18.61,25.65-25.51,43.07-25.51s40.41,7.57,40.41,38.11V881h-13.2V863h-.82c-4.74,10.08-16.31,20.61-35.29,20.61C1144.28,883.62,1127.52,871.16,1127.52,849.22Zm73.55-11.87V820.89c-3.85,3.78-20.46,5.86-29.8,7-19.28,2.38-30.55,8.16-30.55,21.95s11.12,21.72,26,21.72C1187.8,871.53,1201.07,856,1201.07,837.35Z"/><path class="cls-5" d="M1313.75,795.54c-3.56-10.23-11.12-18.32-26.46-18.32s-26.4,8.09-26.4,19.65c0,9.86,6.6,15.57,20.76,19.13l17.2,4.23c19.06,4.67,28.62,14.82,28.62,30,0,19.35-17.2,33.14-42.26,33.14-22.32,0-37.37-10.3-41.37-29.28l12.68-3.12c3.19,13.5,12.9,20.54,28.47,20.54,17.5,0,28.84-8.82,28.84-20.68,0-9.12-6-15.57-18.54-18.54l-18.61-4.45c-19.79-4.74-29.06-15.12-29.06-30.39,0-18.76,16.68-31.89,39.67-31.89,20.83,0,33,10.09,38.55,26.55Z"/><path class="cls-5" d="M1409.46,849.22c0-22.54,18-29.74,43.74-32.92,19.13-2.38,29.8-2.52,29.8-11.12v-2.67c0-15.57-9.56-25.06-26.84-25.06-16.45,0-26.76,8.37-30.91,18.16l-12.53-4.52c7.71-18.61,25.65-25.51,43.07-25.51s40.41,7.57,40.41,38.11V881H1483V863h-.81c-4.75,10.08-16.31,20.61-35.29,20.61C1426.21,883.62,1409.46,871.16,1409.46,849.22ZM1483,837.35V820.89c-3.85,3.78-20.46,5.86-29.8,7-19.28,2.38-30.55,8.16-30.55,21.95s11.12,21.72,26,21.72C1469.73,871.53,1483,856,1483,837.35Z"/><path class="cls-5" d="M1639,739.49c-21.21,0-35.81,11.93-35.81,28.24,0,16,15.49,23.51,30.25,27.66l16,4.6c19.28,5.41,41.22,15.49,41.22,40.7,0,24.32-19.72,42.93-52.64,42.93-31,0-50.56-16.54-52.19-40.56h14.23c1.49,18,17.5,27.88,38,27.88,22.69,0,39.23-12.23,39.23-30.47,0-15.5-12.91-22.54-31.74-28l-18.16-5.34c-23.8-7-37.59-19.27-37.59-38.77,0-24.47,21.58-41.3,49.6-41.3,28.25,0,48.19,17.05,49.23,40.11h-13.42C1673.45,750.24,1659.07,739.49,1639,739.49Z"/><path class="cls-5" d="M1715.48,824.75c0-34.48,20.39-59.17,49.9-59.17,24.68,0,48.19,17.87,48.19,55.91V828h-84.82c.59,26.32,15.35,43.3,38.63,43.3,16.16,0,26.47-8.45,30.84-18.68l12.53,4.07c-5.19,14.31-20.54,26.69-43.37,26.69C1735.5,883.39,1715.48,859.3,1715.48,824.75Zm84.59-8.38c0-21.94-14.31-38.77-34.69-38.77-20.84,0-35.15,17.57-36.56,38.77Z"/><path class="cls-5" d="M1842.55,767.14h12.82v17.5h1c4.59-11.49,16.83-19.2,31.14-19.2,2.14,0,5.19.14,7,.22v13.42a55.47,55.47,0,0,0-7.93-.74c-17.79,0-30.77,12.23-30.77,29.13V881h-13.19Z"/><path class="cls-5" d="M1967.1,881H1953l-41.59-113.88h14.31l33.8,96.46h1l33.81-96.46h14.31Z"/><path class="cls-5" d="M2031.44,738.08a9.9,9.9,0,1,1,9.86,9.49A9.74,9.74,0,0,1,2031.44,738.08Zm3.11,29.06h13.28V881h-13.28Z"/><path class="cls-5" d="M2077,824.6c0-34.25,20.31-59,50.12-59,22.83,0,40.48,14.24,43.59,35.37h-13.34c-2.82-12.9-13.79-23.35-30-23.35-21.87,0-37.07,19-37.07,46.56s14.75,47.15,37.07,47.15c15.12,0,27.06-9,30.1-23.5h13.35c-3,20.61-19.73,35.58-43.45,35.58C2096.68,883.39,2077,858.56,2077,824.6Z"/><path class="cls-5" d="M2193.12,824.75c0-34.48,20.39-59.17,49.9-59.17,24.69,0,48.19,17.87,48.19,55.91V828H2206.4c.59,26.32,15.34,43.3,38.62,43.3,16.17,0,26.47-8.45,30.85-18.68l12.53,4.07c-5.19,14.31-20.54,26.69-43.38,26.69C2213.14,883.39,2193.12,859.3,2193.12,824.75Zm84.6-8.38c0-21.94-14.31-38.77-34.7-38.77-20.83,0-35.14,17.57-36.55,38.77Z"/></g></svg>